<svg width="799" height="715" viewBox="0 0 799 715" fill="none" xmlns="http://www.w3.org/2000/svg">
<path d="M-101.968 215.917C-71.7716 180.468 -43.9546 158.973 2.96687 135.065C93.3662 89.0047 191.287 94.4201 285.284 38.3928C396.487 -28.0283 347.072 -62.2246 328.188 -45.0118C289.89 -9.50181 279.481 -0.131835 251.943 15.5261C138.563 79.8031 63.9738 59.5195 -38.5351 118.528C-73.1718 138.345 -110.412 171.145 -130.643 195.822C-163.503 236.153 -130.877 250.167 -101.968 215.917Z" fill="#5D1619"/>
<path d="M432.076 191.336C384.804 254.462 358.46 270.868 275.84 288.564C113.946 323.608 89.3843 332.869 37.1239 379.288C12.1206 401.517 -23.5864 451.16 -19.8577 458.478C-11.6325 474.621 10.558 466.027 27.6457 439.969C91.0829 343.12 186.816 330.941 247.543 318.164C303.091 306.398 373.991 296.029 414.577 262.878C460.21 225.8 491.689 174.245 474.546 164.544C460.765 156.654 455.389 159.937 432.076 191.336Z" fill="#5D1619"/>
<path d="M-111.698 442.647C-86.3478 395.028 -68.8174 370.371 -42.8599 345.758C28.576 277.911 108.733 234.627 211.065 209.327C310.376 184.481 370.407 151.183 424.831 90.9184C468.112 42.8386 481.516 15.4041 462.595 13.3871C454.054 12.5876 454.59 12.0448 399.589 67.4519C330.436 137.119 285.801 163.386 193.512 188.178C77.1803 219.527 -6.63938 264.133 -74.4121 330.657C-113.231 368.872 -156.255 436.611 -150.528 451.044C-144.358 466.879 -122.029 462.28 -111.698 442.647Z" fill="#5D1619"/>
</svg>
