<svg width="626" height="280" viewBox="0 0 626 280" fill="none" xmlns="http://www.w3.org/2000/svg">
<path fill-rule="evenodd" clip-rule="evenodd" d="M391.172 2.44203C330.447 8.14043 288.178 24.9643 298.299 39.6173C303.061 46.6725 321.517 46.9439 331.935 40.16C412.604 -11.9386 634.964 48.572 726.647 81.1343C892.449 140.289 939.183 263.486 831.427 356.831C796.599 386.951 773.381 390.479 672.471 381.796C582.872 373.927 530.779 385.866 436.716 437.423C386.112 465.101 358.428 477.309 311.694 501.731C103.921 610.001 -32.1147 418.426 96.1813 197.816C138.153 125.636 202.449 64.0391 255.434 57.798C276.271 55.3558 267.936 49.1147 243.527 49.1147C180.719 49.1147 107.493 104.742 58.3774 182.62C-79.742 401.33 40.8149 600.775 277.462 544.876C320.624 534.565 323.898 533.211 415.879 486.267C575.728 404.861 603.411 395.906 670.387 403.504C786.181 416.8 837.383 408.928 881.141 371.21C998.423 269.996 940.969 131.609 753.735 65.1272C603.709 11.9421 491.487 -7.32667 391.172 2.44203ZM440.588 83.5765C344.738 90.0889 230.727 131.066 230.727 159.287C230.727 160.643 218.225 173.126 202.746 187.236C93.5026 287.094 98.8609 407.574 212.867 400.248C242.337 398.348 256.029 393.193 328.959 355.475C425.999 305.274 444.455 301.475 562.035 309.887C802.553 326.983 829.641 242.861 806.125 201.615C770.404 138.661 572.456 74.6218 440.588 83.5765ZM549.83 288.179C427.19 278.953 393.851 286.006 281.331 345.432C204.532 385.863 189.054 388.308 172.682 362.801C122.377 284.38 245.016 119.395 456.362 105.285C592.1 96.3301 763.26 160.915 764.153 224.411C765.344 307.445 605.197 292.249 549.83 288.179ZM412.31 151.415C365.278 160.098 245.611 202.972 245.611 246.659C245.611 265.925 289.666 270.541 345.331 256.974C439.097 234.18 490.002 229.564 592.4 233.092C667.413 235.805 690.628 198.63 631.392 171.223C596.862 155.214 458.448 142.731 412.31 151.415ZM626.632 198.901C626.632 214.64 599.544 220.61 555.191 214.64C522.448 210.298 509.945 210.572 442.077 217.627C394.449 222.512 365.275 227.393 326.875 236.891C311.396 240.69 297.108 243.406 295.322 242.863C287.88 240.15 353.073 178.55 446.542 170.409C481.667 167.153 626.632 166.61 626.632 198.901Z" fill="#5D1619"/>
</svg>
